<svg width="26" height="26" viewBox="0 0 26 26" fill="none" xmlns="http://www.w3.org/2000/svg">
<g clip-path="url(#clip0_1492_5721)">
<path d="M9.05735 0.854771C6.45954 1.75597 4.2192 3.46648 2.66539 5.73506C1.11158 8.00363 0.326205 10.7107 0.424621 13.4586C0.523037 16.2065 1.50006 18.8505 3.21218 21.0021C4.92429 23.1537 7.28126 24.6995 9.93688 25.4126C12.0898 25.9681 14.3455 25.9925 16.51 25.4837C18.4708 25.0432 20.2836 24.1011 21.7709 22.7496C23.3189 21.3 24.4425 19.4559 25.0209 17.4156C25.6497 15.1968 25.7615 12.8634 25.348 10.5946H13.258V15.6098H20.2597C20.1198 16.4097 19.8199 17.1731 19.378 17.8544C18.9362 18.5357 18.3614 19.1208 17.6881 19.5748C16.8331 20.1403 15.8693 20.5209 14.8586 20.692C13.8449 20.8805 12.8051 20.8805 11.7914 20.692C10.764 20.4795 9.79205 20.0555 8.9375 19.4468C7.56468 18.475 6.53388 17.0945 5.99219 15.5021C5.44135 13.8799 5.44135 12.1213 5.99219 10.4991C6.37778 9.36209 7.0152 8.3268 7.85688 7.47055C8.82008 6.47269 10.0395 5.75942 11.3814 5.40899C12.7233 5.05856 14.1358 5.08451 15.4639 5.48399C16.5014 5.80247 17.4502 6.35893 18.2345 7.10899C19.024 6.32357 19.8121 5.53613 20.5989 4.74665C21.0052 4.32211 21.448 3.9179 21.8481 3.48321C20.6508 2.36902 19.2455 1.50204 17.7125 0.931959C14.921 -0.081656 11.8665 -0.108896 9.05735 0.854771Z" fill="white"/>
<path d="M9.05733 0.854782C11.8663 -0.10954 14.9207 -0.0830174 17.7125 0.929938C19.2457 1.5039 20.6504 2.37505 21.8461 3.49338C21.4398 3.92806 21.0112 4.33431 20.5969 4.75681C19.8087 5.54358 19.0213 6.32765 18.2345 7.109C17.4501 6.35894 16.5014 5.80248 15.4639 5.484C14.1362 5.08311 12.7238 5.05567 11.3815 5.40466C10.0393 5.75366 8.81908 6.46563 7.85483 7.46244C7.01314 8.31868 6.37572 9.35397 5.99014 10.491L1.77936 7.23088C3.28656 4.24202 5.89619 1.95577 9.05733 0.854782Z" fill="#E33629"/>
<path d="M0.662209 10.4611C0.888533 9.33946 1.26428 8.25322 1.7794 7.23145L5.99018 10.4997C5.43933 12.1219 5.43933 13.8805 5.99018 15.5027C4.58726 16.586 3.18367 17.6748 1.7794 18.7689C0.489858 16.2021 0.0965718 13.2775 0.662209 10.4611Z" fill="#F8BD00"/>
<path d="M13.258 10.5928H25.348C25.7615 12.8615 25.6497 15.1949 25.021 17.4137C24.4425 19.4541 23.3189 21.2982 21.771 22.7478C20.412 21.6875 19.047 20.6353 17.6881 19.575C18.3619 19.1205 18.9369 18.5347 19.3788 17.8527C19.8206 17.1707 20.1203 16.4065 20.2597 15.6059H13.258C13.256 13.9362 13.258 12.2645 13.258 10.5928Z" fill="#587DBD"/>
<path d="M1.77734 18.7692C3.18161 17.6858 4.58521 16.5971 5.98813 15.5029C6.53089 17.0958 7.56317 18.4765 8.9375 19.4476C9.7947 20.0535 10.7687 20.4741 11.7975 20.6826C12.8112 20.8711 13.851 20.8711 14.8647 20.6826C15.8754 20.5115 16.8392 20.131 17.6942 19.5654C19.0531 20.6257 20.4181 21.6779 21.777 22.7382C20.2899 24.0905 18.4771 25.0333 16.5161 25.4743C14.3516 25.9832 12.0959 25.9588 9.94297 25.4032C8.24018 24.9486 6.64965 24.1471 5.27109 23.049C3.81197 21.8906 2.62022 20.4307 1.77734 18.7692Z" fill="#319F43"/>
</g>
<defs>
<clipPath id="clip0_1492_5721">
<rect width="26" height="26" fill="white"/>
</clipPath>
</defs>
</svg>
